# xmcd
#
# Track frame offsets:
# 150
# 14108
# 29828
# 47868
# 63704
# 79036
# 94658
# 104945
# 123909
# 141136
# 152342
# 166434
# 177035
# 190723
# 203418
# 219873
# 235080
# 249709
# 264918
# 281872
# 299036
# 313424
#
# Disc length: 4330 seconds
#
#
# Revision: 0
# Processed by: cddbd v1.5.2PL0 Copyright (c) Steve Scherf et al.
# Submitted via: FreeRIP 2.96 
#
DISCID=4d10e816
DTITLE=Pancadão do Caldeirão do Huck - Pancadão do Caldeirão do Huck
DYEAR=2006
DGENRE=Funk
TTITLE0=Mr.Catra - Adultério ( Tédio )
TTITLE1=Márcio G - Pernão Sarado
TTITLE2=Perlla - Eu Vou ( Externded Version )
TTITLE3=Robinho da Prata - Corpo de Vinho
TTITLE4=Buchecha Feat. Mc Marcinho - Luminosa ( Remix )
TTITLE5=Paulinho - Minha Versão
TTITLE6=Mc Didô - Tô na Pista Pra Negócio
TTITLE7=Mc Leozinho - Isso é o Funk
TTITLE8=Princesa e o Plebeu - Estrela de TV
TTITLE9=Roni and Baby - Gandaia
TTITLE10=Mc Biruleybi - B-A-BA
TTITLE11=Pé de Pano - Hoje Eu Vou Beijar Você
TTITLE12=Os Caçadores - Tio Toím
TTITLE13=Os Ousados - Sabãozinho
TTITLE14=Latino - Cátia Catchaça
TTITLE15=Cidinho and Doca - Funk Nacional
TTITLE16=Cacau - Complicado
TTITLE17=Mc Magrão - Te Beijar
TTITLE18=Evelyn - Demorou ( Funk Mão Mix )
TTITLE19=Cidinho and Doca - Rap da Felicidade ( Remix )
TTITLE20=Mc Bob Rum - Rap do Silva ( Remix )
TTITLE21=Jack and Chocolate - Um Morto Muito Louco ( Remix )
EXTD=
EXTT0=
EXTT1=
EXTT2=
EXTT3=
EXTT4=
EXTT5=
EXTT6=
EXTT7=
EXTT8=
EXTT9=
EXTT10=
EXTT11=
EXTT12=
EXTT13=
EXTT14=
EXTT15=
EXTT16=
EXTT17=
EXTT18=
EXTT19=
EXTT20=
EXTT21=
PLAYORDER=
